PathFileType	4	(X/Y/Z)	C:/Users/opensim2020/Desktop/walking_exp_matlab/subject02_walking11_straight_03.trc	
DataRate	CameraRate	NumFrames	NumMarkers	Units	OrigDataRate	OrigDataStartFrame	OrigNumFrames	
100.00	100.00	6	42	mm	100.00	2473	250	
Frame#	Time	LFHD			RFHD			LBHD			RBHD			C7			T10			CLAV			STRN			RBAK			LSHO			LUPA			LELB			LFRM			LWRA			LWRB			LFIN			RSHO			RUPA			RELB			RFRM			RWRA			RWRB			RFIN			LASI			RASI			LPSI			RPSI			LTHI			LKNE			LTIB			LANK			LHEE			LTOE			RTHI			RKNE			RTIB			RANK			RHEE			RTOE			*39			*40			*41			
		X1	Y1	Z1	X2	Y2	Z2	X3	Y3	Z3	X4	Y4	Z4	X5	Y5	Z5	X6	Y6	Z6	X7	Y7	Z7	X8	Y8	Z8	X9	Y9	Z9	X10	Y10	Z10	X11	Y11	Z11	X12	Y12	Z12	X13	Y13	Z13	X14	Y14	Z14	X15	Y15	Z15	X16	Y16	Z16	X17	Y17	Z17	X18	Y18	Z18	X19	Y19	Z19	X20	Y20	Z20	X21	Y21	Z21	X22	Y22	Z22	X23	Y23	Z23	X24	Y24	Z24	X25	Y25	Z25	X26	Y26	Z26	X27	Y27	Z27	X28	Y28	Z28	X29	Y29	Z29	X30	Y30	Z30	X31	Y31	Z31	X32	Y32	Z32	X33	Y33	Z33	X34	Y34	Z34	X35	Y35	Z35	X36	Y36	Z36	X37	Y37	Z37	X38	Y38	Z38	X39	Y39	Z39	X40	Y40	Z40	X41	Y41	Z41	X42	Y42	Z42	

94	0.930	1371.34424	-202.74634	1752.50940	1514.99072	-200.36653	1737.13049	1363.64661	-308.20908	1645.38806	1505.37573	-318.10519	1625.74878	1442.25183	-341.11945	1520.33142	1445.82849	-394.19708	1245.96802	1423.55640	-202.72649	1455.32214	1434.28442	-149.16087	1282.22754	1510.77917	-396.38605	1349.53699	1258.50024	-282.82742	1493.23193	1175.31982	-314.98431	1294.86914	1162.08105	-328.30716	1155.29199	1143.55823	-322.96155	1024.17139	1158.03711	-264.24548	897.85364	1134.55908	-315.95184	901.96698	1123.75244	-298.15820	838.97083	1624.03894	-250.11206	1490.82312	1706.09619	-254.77530	1295.79346	1720.59412	-217.84822	1152.28052	1734.67139	-161.12981	1045.39087	1706.46448	-84.57958	934.53815	1743.56335	-125.94976	920.11670	1738.27856	-75.60946	866.61053	1307.55969	-147.25461	994.01819	1563.45166	-163.49388	966.42523	1373.96509	-363.32364	1030.90540	1487.82532	-375.27371	1022.44427	1246.30310	-187.67346	683.98584	1277.73169	-205.34653	479.76035	1281.78674	-249.64824	288.62164	1322.75647	-232.94102	67.46433	1375.58289	-265.60483	39.52147	1304.83215	-76.50547	33.05021	1642.97583	-239.99498	665.34033	1641.36621	-230.47923	467.32568	1639.62903	-375.67084	356.74542	1604.20105	-510.90408	220.48563	1538.69287	-558.18243	194.98164	1649.37231	-456.05121	74.79376	1458.91016	-319.38074	1789.92151	-3360.25830	2845.15161	1034.31921			 
95	0.940	1369.87769	-194.64040	1753.19580	1513.65955	-192.41104	1737.87744	1361.72876	-300.81870	1646.28369	1503.90710	-310.12259	1626.48364	1440.31787	-332.98755	1521.30798	1443.06860	-386.79715	1247.13367	1422.36768	-194.74197	1455.83350	1433.20093	-141.72870	1282.57458	1508.56641	-389.24353	1350.91284	1256.85388	-273.25140	1494.36279	1172.61084	-304.11252	1296.18762	1158.93628	-315.17374	1156.30640	1139.83472	-308.08734	1025.10242	1155.04321	-246.50256	900.43152	1131.47986	-298.26578	903.26538	1120.47937	-278.45737	841.02802	1622.53748	-242.97470	1491.22327	1704.41760	-248.68240	1296.29980	1718.96411	-212.86420	1152.46411	1733.38110	-156.95734	1045.26367	1705.53540	-81.03394	933.88513	1742.39465	-122.59747	919.70288	1737.44238	-72.72688	865.79669	1306.34021	-140.54759	993.84802	1562.71729	-157.22339	967.84772	1372.35754	-356.64429	1031.89160	1486.00513	-368.66907	1023.44977	1245.63196	-183.85922	683.75293	1277.35767	-203.77789	479.77838	1282.13623	-249.66475	288.80777	1322.99231	-232.86478	67.47237	1375.71289	-265.65247	39.54991	1304.67590	-76.49635	33.02298	1642.31409	-227.66122	666.66058	1639.72803	-215.00169	469.09888	1636.23889	-359.20285	356.85104	1600.07288	-492.07471	218.50107	1534.36316	-538.25421	190.78247	1648.70715	-434.54315	75.43973	1457.37317	-311.29443	1790.62769	-3357.39429	2845.84399	1034.38159			 
96	0.950	1368.67700	-186.43571	1753.87390	1512.36853	-184.40828	1738.51733	1360.38464	-292.62854	1646.98218	1502.17981	-302.28943	1627.06433	1438.44446	-324.83530	1522.15295	1440.46216	-379.46237	1248.24255	1421.24402	-186.77110	1456.22131	1432.08240	-134.40883	1282.80493	1505.61426	-381.77301	1351.35229	1255.31042	-263.70303	1495.52429	1170.02808	-293.38956	1297.54211	1155.40393	-302.92471	1157.49268	1136.75659	-292.60770	1026.39160	1152.60706	-228.44180	903.34357	1128.54932	-280.27267	904.70813	1117.63794	-258.26462	843.16089	1621.02576	-235.68272	1491.69177	1702.80579	-242.73285	1296.58423	1717.26648	-208.12364	1152.32214	1732.13147	-152.81029	1044.97998	1704.92944	-77.40136	933.26910	1741.42346	-119.31973	919.30072	1736.92334	-69.51834	865.13245	1304.89380	-134.05676	993.86322	1561.71228	-150.79649	969.26801	1371.05664	-350.06073	1032.67383	1484.67139	-361.96887	1024.30396	1245.07117	-180.11192	683.35999	1277.04956	-201.96635	479.75104	1282.50049	-249.52403	289.07178	1323.20374	-232.82950	67.52519	1375.82849	-265.53378	39.62766	1304.55554	-76.47709	33.00981	1641.70850	-215.40936	667.97382	1637.96069	-200.01894	470.65097	1632.93445	-342.64203	356.40582	1596.14172	-472.71033	215.68214	1530.40210	-517.97168	185.87671	1647.83362	-411.90118	75.55220	1455.75647	-303.37756	1791.17285	-3357.34082	2846.01074	1034.29199			 
97	0.960	1367.48987	-178.26961	1754.38232	1511.27966	-176.40843	1739.06616	1358.91357	-284.49570	1647.41565	1500.82764	-294.35507	1627.61755	1436.70593	-316.81607	1522.91760	1438.02820	-372.15048	1249.29883	1420.20776	-178.79269	1456.54834	1431.01624	-127.07761	1282.94458	1503.44934	-374.41815	1352.47449	1253.93188	-254.27591	1496.66199	1167.68567	-282.18542	1298.92139	1152.08105	-290.34125	1158.74475	1133.73901	-277.06482	1027.67395	1150.16858	-211.13254	906.19360	1125.60107	-262.18301	906.32068	1114.56763	-238.65652	845.47687	1619.76770	-228.22995	1491.96643	1701.32300	-236.73528	1296.82312	1715.74365	-203.41347	1152.43176	1731.36047	-148.61325	1044.86670	1704.39026	-73.87290	932.49695	1740.58081	-116.07629	918.82697	1736.37634	-66.69202	864.28613	1303.51538	-127.72473	994.04211	1560.39136	-144.21906	970.74304	1370.12537	-343.75858	1033.21875	1483.71240	-355.57025	1025.09180	1245.02551	-176.98778	683.09747	1276.81079	-199.97034	479.65771	1282.70325	-248.90329	289.35989	1323.40967	-232.78032	67.59291	1376.08752	-265.46835	39.70665	1304.43188	-76.44444	32.94833	1641.14221	-203.33179	669.27753	1635.93127	-185.42987	471.99634	1629.80652	-326.01962	355.46494	1592.48291	-452.78918	212.05348	1526.34741	-497.15787	179.91875	1646.56274	-388.13657	75.03151	1454.65698	-295.19745	1791.86218	-3360.35010	2845.15820	1034.18933			 
98	0.970	1366.49121	-169.99300	1754.81213	1510.17163	-168.36792	1739.49792	1357.74182	-276.36496	1647.94592	1499.92297	-286.17093	1628.13745	1435.10254	-308.82321	1523.62341	1435.73816	-364.85757	1250.21704	1419.24121	-170.82925	1456.80408	1430.02747	-119.74335	1283.05688	1501.21252	-367.14380	1353.30945	1252.67834	-244.92180	1497.69714	1165.30652	-271.28333	1300.16028	1148.69995	-277.80972	1159.88745	1130.54492	-261.52081	1029.16382	1148.52722	-193.29938	909.18298	1122.86401	-243.95465	908.02081	1112.01880	-218.47081	847.96484	1618.45435	-221.15079	1492.10486	1699.98853	-230.90533	1296.97498	1714.68494	-198.63980	1152.58240	1730.32715	-144.93666	1044.46509	1704.07007	-70.22956	931.88611	1739.78418	-113.00213	918.31317	1736.22021	-63.63971	863.69226	1302.04504	-121.62157	994.42474	1558.87720	-137.49226	972.17535	1369.48962	-337.32758	1033.45093	1483.18201	-348.51859	1025.56421	1244.68677	-173.50299	682.78137	1276.63647	-197.65009	479.48053	1282.53638	-247.52596	289.48380	1323.55518	-232.68338	67.64022	1376.33630	-265.40793	39.91559	1304.33826	-76.43109	32.90521	1640.52930	-191.48346	670.55353	1634.26648	-170.62714	473.62442	1626.79993	-309.16592	354.11871	1588.91565	-432.42838	207.45833	1523.39197	-475.39792	173.66658	1645.20129	-363.49268	73.87103	1453.15503	-287.17148	1792.10730	-3360.43384	2845.24463	1034.18958			 
99	0.980	1365.49023	-161.76907	1755.10938	1509.23755	-160.37372	1739.81140	1356.48840	-268.32803	1648.22229	1498.50073	-278.33203	1628.42212	1433.58655	-300.70547	1524.18530	1433.74072	-357.59290	1251.00537	1418.34155	-162.90746	1457.01404	1429.01904	-112.52604	1283.01074	1499.15637	-359.85684	1354.03809	1251.52368	-235.71291	1498.67517	1162.85498	-260.52283	1301.60168	1145.47693	-264.99295	1161.09827	1127.21216	-246.38321	1030.45862	1146.50085	-175.18869	912.40887	1120.38867	-225.72916	909.77264	1109.52869	-198.57623	850.52051	1617.32739	-213.93857	1492.16699	1698.76355	-225.14197	1297.07092	1713.52600	-194.10457	1152.43457	1729.47571	-141.03206	1043.98584	1703.81055	-66.82916	931.01910	1739.33813	-109.75507	917.80084	1736.28650	-60.50337	863.16486	1300.58398	-115.74377	994.94244	1557.10779	-130.63272	973.44183	1369.12622	-331.09451	1033.47034	1483.03186	-341.60468	1026.06152	1244.36963	-170.09161	682.57611	1276.47253	-195.06779	479.36133	1282.19849	-245.65007	289.57339	1323.72974	-232.57361	67.73510	1376.50793	-265.41348	39.88008	1304.20203	-76.39067	32.86952	1639.63965	-179.67940	671.80756	1632.60889	-156.15135	474.96945	1624.06091	-292.04102	352.32455	1585.95593	-411.19107	202.43927	1520.48193	-453.13663	166.77156	1643.29541	-338.06329	71.90688	1452.24109	-278.96106	1792.61414	-3360.36377	2845.14893	1034.26025			 
